:SAMPLES-PER-SECOND 30
:FRAME-RANGE 1-3549
:FULLY-SPECIFIED
:DEGREES
333
root  -20.9501 32.6761 2.77231 151.784 85.9742 154.541
RightUpLeg  -43.0549 4.6603 0.457185
RightLeg  65.9089 -3.2823 -8.66178
RightFoot  -19.7422 0.00834086 1.93361
RightToes  -1.11029e-010 1.2921e-014 -6.02303e-014
Spine  20.4526 1.02927 -0.834726
Spine1  -9.24887 0.909579 -1.03535
HEad  -25.4833 4.32543 -1.77458
LeftShoulder1  1.16655 -4.29974 -7.35964
LeftArm  -70.1944 -67.5657 7.89922
LeftForeArm  34.9146 -33.3035 -5.38412
LeftHand  -0.463499 2.09209 16.187
RightShoulder  2.33934 33.794 -2.60708
RightArm  -71.0272 37.6672 -9.31014
RightForeArm  37.2589 41.2128 7.38824
RightHand  -1.17208 3.02507 -16.3095
LeftUpLeg  -39.6965 3.76911 -0.303454
LeftLeg  66.076 0.164374 1.1378
LeftFoot  -22.6486 -0.175106 -3.14101
LeftToes  -1.9349e-011 -1.19469e-011 -2.02219e-012
334
root  -20.0185 31.9266 2.49698 155.773 84.9196 158.838
RightUpLeg  -43.4999 4.69624 -0.133878
RightLeg  71.0344 -2.75054 -9.77877
RightFoot  -23.3486 0.219736 3.59382
RightToes  -1.11029e-010 1.2921e-014 -6.02303e-014
Spine  19.9256 0.786145 -1.21231
Spine1  -8.80705 0.70014 -1.09847
HEad  -26.9614 4.01809 -1.59643
LeftShoulder1  1.10385 -4.4637 -6.13011
LeftArm  -75.0633 -68.4595 10.6801
LeftForeArm  36.9239 -34.2891 -5.51621
LeftHand  -0.462017 2.12414 16.2904
RightShoulder  1.78275 32.9925 -4.16022
RightArm  -74.2498 37.3363 -10.707
RightForeArm  38.3256 43.687 8.09771
RightHand  -1.15307 2.83376 -16.4097
LeftUpLeg  -40.0865 3.42798 -0.984317
LeftLeg  70.7901 0.0261598 1.00542
LeftFoot  -26.2746 -0.125506 -2.16228
LeftToes  -1.9349e-011 -1.19469e-011 -2.02219e-012
335
root  -19.1916 31.4255 2.26843 162.648 84.6089 166.212
RightUpLeg  -42.9579 4.53165 0.27428
RightLeg  74.3857 -2.31332 -10.5266
RightFoot  -26.1398 0.494576 5.1727
RightToes  -1.11029e-010 1.2921e-014 -6.02303e-014
Spine  19.6745 0.716523 -0.56826
Spine1  -8.82205 0.794856 -1.43243
HEad  -27.3321 3.28721 -1.33953
LeftShoulder1  1.0552 -4.60785 -5.17741
LeftArm  -78.2093 -69.2601 13.2074
LeftForeArm  37.2237 -34.7366 -5.6115
LeftHand  -0.450115 2.20382 16.256
RightShoulder  1.60326 32.92 -4.70369
RightArm  -75.7696 37.0582 -11.5115
RightForeArm  38.7003 45.0419 8.52652
RightHand  -1.14153 2.61991 -16.6659
LeftUpLeg  -39.623 3.42914 -0.766443
LeftLeg  74.1661 -0.0241716 1.04032
LeftFoot  -29.229 -0.092009 -1.70263
LeftToes  -1.9349e-011 -1.19469e-011 -2.02219e-012
336
root  -18.4451 31.2139 2.13253 162.502 84.2892 166.35
RightUpLeg  -42.0008 4.36157 0.173708
RightLeg  76.3014 -1.97782 -10.7162
RightFoot  -28.0239 0.654012 5.7563
RightToes  -1.11029e-010 1.2921e-014 -6.02303e-014
Spine  19.2681 0.864136 -1.28365
Spine1  -8.93895 0.827199 -1.16908
HEad  -27.5842 2.76065 -0.855223
LeftShoulder1  0.975361 -4.48801 -4.26967
LeftArm  -81.3555 -69.8319 16.5642
LeftForeArm  37.2429 -34.0223 -5.43255
LeftHand  -0.443503 2.18584 15.9251
RightShoulder  1.36873 33.1272 -5.45422
RightArm  -76.6984 37.4612 -11.7238
RightForeArm  38.4679 44.5891 8.38792
RightHand  -1.15761 2.40496 -17.3418
LeftUpLeg  -38.5203 3.13804 -1.00978
LeftLeg  75.7124 0.049486 1.50798
LeftFoot  -31.0576 -0.0691013 -1.47492
LeftToes  -1.9349e-011 -1.19469e-011 -2.02219e-012
337
root  -17.8035 31.3092 2.02729 162.807 83.8723 166.703
RightUpLeg  -40.5526 3.75458 0.102639
RightLeg  76.4842 -1.9318 -10.6705
RightFoot  -29.1407 0.717651 5.84512
RightToes  -1.11029e-010 1.2921e-014 -6.02303e-014
Spine  18.7842 1.00664 -1.70839
Spine1  -8.90971 0.895518 -1.0543
HEad  -28.0526 1.95866 -0.320937
LeftShoulder1  0.861382 -4.2391 -3.04762
LeftArm  -85.7153 -70.6144 21.647
LeftForeArm  36.1884 -32.0223 -5.00671
LeftHand  -0.433954 2.14688 15.3927
RightShoulder  0.951978 33.3005 -6.75081
RightArm  -77.3268 37.9068 -11.9229
RightForeArm  37.9086 42.9061 7.87246
RightHand  -1.12736 2.59231 -16.5188
LeftUpLeg  -37.0636 2.47151 -1.22873
LeftLeg  75.6843 0.143623 1.93478
LeftFoot  -32.0066 -0.174802 -2.01755
LeftToes  -1.9349e-011 -1.19469e-011 -2.02219e-012
338
root  -17.2735 31.7712 1.95388 165.845 83.4471 169.591
RightUpLeg  -38.6485 2.85155 0.346515
RightLeg  74.8092 -2.21667 -10.472
RightFoot  -28.8363 0.636628 5.4089
RightToes  -1.11029e-010 1.2921e-014 -6.02303e-014
Spine  18.1604 1.18961 -1.48164
Spine1  -8.69408 1.15147 -1.30098
HEad  -29.0357 0.790705 -0.0886637
LeftShoulder1  0.70013 -4.0881 -0.887784
LeftArm  -91.098 -71.3154 27.7986
LeftForeArm  34.6663 -28.8889 -4.369
LeftHand  -0.406462 2.19684 14.6222
RightShoulder  0.282264 33.2742 -8.80158
RightArm  -77.9392 38.2989 -12.5669
RightForeArm  37.0761 39.5359 6.90609
RightHand  -1.13447 2.51072 -16.7851
LeftUpLeg  -35.316 2.09948 -1.18094
LeftLeg  73.8948 0.334513 2.44821
LeftFoot  -31.4572 -0.154191 -1.93853
LeftToes  -1.9349e-011 -1.19469e-011 -2.02219e-012
339
root  -16.8407 32.7184 1.88771 168.216 82.6958 171.479
RightUpLeg  -35.5252 1.14496 0.415134
RightLeg  69.9489 -3.05337 -10.0621
RightFoot  -28.1588 0.456625 4.38193
RightToes  -1.11029e-010 1.2921e-014 -6.02303e-014
Spine  17.417 1.26279 -1.10954
Spine1  -8.71814 1.31408 -1.58924
HEad  -30.1133 -0.52676 -0.179007
LeftShoulder1  0.525224 -3.7802 1.40365
LeftArm  -95.8858 -71.8295 35.286
LeftForeArm  32.1984 -24.7158 -3.59935
LeftHand  -0.383821 2.15571 13.6186
RightShoulder  -0.845261 32.8939 -12.287
RightArm  -78.6054 39.1737 -13.2115
RightForeArm  35.8478 34.3767 5.59734
RightHand  -1.08344 2.67259 -15.7392
LeftUpLeg  -32.5106 1.90622 -1.27722
LeftLeg  68.9239 0.554521 2.43824
LeftFoot  -30.1243 0.00177212 -1.08647
LeftToes  -1.9349e-011 -1.19469e-011 -2.02219e-012
340
root  -16.4229 34.4616 1.76094 173.345 81.6426 175.983
RightUpLeg  -30.2195 -1.74382 0.577909
RightLeg  60.2016 -3.9111 -7.86214
RightFoot  -24.9929 0.0989139 2.24197
RightToes  -1.11029e-010 1.2921e-014 -6.02303e-014
Spine  15.5997 1.02426 0.884933
Spine1  -8.1591 1.45838 -2.61642
HEad  -30.5186 -2.01823 -0.317328
LeftShoulder1  0.410883 -3.51295 2.95096
LeftArm  -100.433 -73.0471 41.903
LeftForeArm  31.3239 -19.8253 -4.25896
LeftHand  -0.362746 1.98988 12.2403
RightShoulder  -1.9265 33.0085 -15.6146
RightArm  -78.4207 40.2754 -13.1533
RightForeArm  35.6348 27.7438 4.06605
RightHand  -0.916358 3.04031 -12.8092
LeftUpLeg  -27.7119 1.69885 -0.917835
LeftLeg  59.333 0.561291 1.59951
LeftFoot  -26.275 0.156205 -0.0134089
LeftToes  -1.9349e-011 -1.19469e-011 -2.02219e-012
341
root  -15.9181 37.0298 1.63282 176.461 80.5834 179.524
RightUpLeg  -21.2418 -5.17941 0.39108
RightLeg  44.9557 -3.81817 -4.39074
RightFoot  -16.8901 -0.0342578 1.65251
RightToes  -1.11029e-010 1.2921e-014 -6.02303e-014
Spine  12.0549 1.07189 2.95552
Spine1  -5.56243 1.94397 -3.76823
HEad  -28.9312 -3.80865 -0.664504
LeftShoulder1  0.39027 -4.11535 3.78896
LeftArm  -99.4519 -76.0273 39.0198
LeftForeArm  35.1913 -15.0413 -6.50822
LeftHand  -0.358319 1.6692 11.0739
RightShoulder  -2.08172 34.5248 -15.8234
RightArm  -74.5865 41.8451 -11.4753
RightForeArm  35.644 20.1244 2.71194
RightHand  -0.746299 2.94806 -10.5971
LeftUpLeg  -19.3055 4.10974 -0.00785658
LeftLeg  44.4672 -1.71586 -1.3949
LeftFoot  -17.4614 0.130035 0.47274
LeftToes  -1.9349e-011 -1.19469e-011 -2.02219e-012
342
root  -15.3011 40.2613 1.55134 177.86 79.2701 -179.203
RightUpLeg  -10.8657 -9.87985 -0.692302
RightLeg  24.6249 -0.125799 -0.288692
RightFoot  0.446247 -0.542485 5.28004
RightToes  -1.11029e-010 1.2921e-014 -6.02303e-014
Spine  6.89071 1.03115 2.59579
Spine1  -3.12347 1.69795 -2.74681
HEad  -23.7235 -3.97306 -1.22547
LeftShoulder1  0.442736 -4.30826 3.16549
LeftArm  -82.1534 -79.5356 18.6626
LeftForeArm  36.0185 -9.81958 -9.20076
LeftHand  -0.275807 1.88148 8.95637
RightShoulder  -1.57232 37.9271 -13.9134
RightArm  -67.0647 42.883 -6.51389
RightForeArm  34.239 11.237 1.778
RightHand  -0.428801 2.64888 -6.40299
LeftUpLeg  -9.50319 11.6072 1.65092
LeftLeg  24.7654 -10.2004 -4.7739
LeftFoot  0.78382 0.422492 -4.02279
LeftToes  -1.9349e-011 -1.19469e-011 -2.02219e-012
343
root  -14.8658 43.1028 1.44572 -179.144 77.2987 -177.886
RightUpLeg  -5.15902 -7.78427 -3.52842
RightLeg  7.00517 -3.83008 2.99385
RightFoot  27.5825 -4.5138 13.2847
RightToes  -1.11029e-010 1.2921e-014 -6.02303e-014
Spine  1.39592 0.730115 2.85391
Spine1  -0.895706 1.32085 -2.81013
HEad  -19.6683 -4.4787 -1.04768
LeftShoulder1  0.424033 -4.326 3.45324
LeftArm  -47.78 -79.3883 -11.8779
LeftForeArm  32.6372 -10.4546 -10.428
LeftHand  -0.211452 3.88399 15.6243
RightShoulder  -0.140281 37.8977 -10.0453
RightArm  -60.9847 41.7289 -1.47266
RightForeArm  28.7238 11.5935 3.28847
RightHand  -0.700394 2.23688 -10.8377
LeftUpLeg  -2.75728 10.2862 5.29357
LeftLeg  3.67542 -9.20626 -5.60736
LeftFoot  27.1927 6.16962 -18.0269
LeftToes  -1.9349e-011 -1.19469e-011 -2.02219e-012
344
root  -14.8213 45.42 1.39756 -177.92 75.6027 -178.147
RightUpLeg  -4.57025 -9.28675 -5.53712
RightLeg  2.5341 -8.90679 4.08907
RightFoot  32.1886 -6.64928 17.1399
RightToes  -1.11029e-010 1.2921e-014 -6.02303e-014
Spine  -1.4026 0.431479 2.52778
Spine1  1.07321 0.938036 -2.57782
HEad  -18.8538 -4.52147 -1.54576
LeftShoulder1  0.561488 -3.75047 0.799944
LeftArm  -32.8219 -77.2817 -9.58551
LeftForeArm  21.8446 -17.0928 -7.87608
LeftHand  -0.214717 3.5369 12.857
RightShoulder  0.736205 34.5534 -7.48947
RightArm  -54.2897 43.0619 -3.47557
RightForeArm  26.4981 13.017 5.09188
RightHand  -0.660814 1.43006 -11.3841
LeftUpLeg  -2.88358 10.2531 6.59196
LeftLeg  -0.567026 5.18684 -4.87356
LeftFoot  28.7979 7.49566 -20.8376
LeftToes  -1.9349e-011 -1.19469e-011 -2.02219e-012
